<?xml version="1.0" encoding="UTF-8"?>
<svg xmlns="http://www.w3.org/2000/svg" viewBox="0 0 1200 630" width="1200" height="630">
  <defs>
    <linearGradient id="g57862" x1="91.9335283972712%" y1="22.768048249248658%" x2="8.06647160272879%" y2="77.23195175075134%">
      <stop offset="0%" stop-color="#1E40AF"/>
      <stop offset="100%" stop-color="#1E3A8A"/>
    </linearGradient>
  </defs>
  <rect width="1200" height="630" fill="url(#g57862)"/>
  <polygon points="497.5127352355048,248.00464565865695 567.5127352355048,208.00464565865695 637.5127352355048,248.00464565865695 567.5127352355048,288.00464565865695" fill="rgba(255,255,255,0.08)" stroke="rgba(255,255,255,0.15)" stroke-width="2"/><line x1="627.5127352355048" y1="253.00464565865695" x2="627.5127352355048" y2="308.00464565865695" stroke="rgba(255,255,255,0.12)" stroke-width="2"/><path d="M 901.0695341974497 388.2158809294924 C 871.0695341974497 378.2158809294924 821.0695341974497 383.2158809294924 811.0695341974497 318.2158809294924 L 901.0695341974497 328.2158809294924 L 991.0695341974497 318.2158809294924 C 981.0695341974497 383.2158809294924 931.0695341974497 378.2158809294924 901.0695341974497 388.2158809294924 Z" fill="rgba(255,255,255,0.06)" stroke="rgba(255,255,255,0.12)" stroke-width="1.5"/><line x1="901.0695341974497" y1="388.2158809294924" x2="901.0695341974497" y2="328.2158809294924" stroke="rgba(255,255,255,0.12)" stroke-width="1.5"/><rect x="187.007942260243" y="386.72586251050234" width="8" height="100" rx="1" fill="rgba(255,255,255,0.1)" transform="rotate(48.98344890214503 187.007942260243 386.72586251050234)"/><circle cx="1032.0415474008769" cy="188.78431532531977" r="30" fill="none" stroke="rgba(255,255,255,0.12)" stroke-width="2"/><line x1="1022.0415474008769" y1="218.78431532531977" x2="1042.0415474008769" y2="218.78431532531977" stroke="rgba(255,255,255,0.1)" stroke-width="2"/><line x1="1024.0415474008769" y1="225.78431532531977" x2="1040.0415474008769" y2="225.78431532531977" stroke="rgba(255,255,255,0.1)" stroke-width="2"/><circle cx="967.9761444684118" cy="207.7220640424639" r="4.626031770370901" fill="rgba(255,255,255,0.1184922756254673)"/><circle cx="965.3530125040561" cy="200.6342271529138" r="2.0608687857165933" fill="rgba(255,255,255,0.04277378473430872)"/><circle cx="681.1813396168873" cy="408.9909725752659" r="2.2016819240525365" fill="rgba(255,255,255,0.06520779157057405)"/><circle cx="728.1776561867446" cy="507.12831184035167" r="2.396919757127762" fill="rgba(255,255,255,0.08146312072873116)"/><circle cx="211.4253453211859" cy="474.36042609158903" r="5.099243993870914" fill="rgba(255,255,255,0.1009562393091619)"/><circle cx="100.9475271916017" cy="352.15557135874406" r="3.953776393085718" fill="rgba(255,255,255,0.09882840927690267)"/><circle cx="586.6074415622279" cy="528.8167013856582" r="4.034301560372114" fill="rgba(255,255,255,0.1048003153502941)"/><circle cx="1141.1094459705055" cy="198.4296523523517" r="5.795335862785578" fill="rgba(255,255,255,0.04831252712756395)"/><circle cx="152.87940949201584" cy="435.6769789662212" r="3.1274870317429304" fill="rgba(255,255,255,0.09478608947247266)"/><circle cx="168.99298168718815" cy="259.26697447663173" r="4.435042664408684" fill="rgba(255,255,255,0.05236082337796688)"/><circle cx="884.6768208080903" cy="142.0562563324347" r="2.740749703720212" fill="rgba(255,255,255,0.05981736872345209)"/><circle cx="569.0360801294446" cy="280.9132592426613" r="3.642922601662576" fill="rgba(255,255,255,0.07525330223143101)"/><circle cx="1005.6210590759292" cy="267.3328834050335" r="4.171912234276533" fill="rgba(255,255,255,0.09559156794101001)"/><circle cx="513.0417962092906" cy="448.18721051327884" r="4.34749015327543" fill="rgba(255,255,255,0.07435429381206632)"/><circle cx="565.0101823965088" cy="287.44721131166443" r="5.366095560602844" fill="rgba(255,255,255,0.04034186750650406)"/>
  <circle cx="1185.1075345650315" cy="168.94423589576036" r="1.1954079708084464" fill="rgba(255,255,255,0.0639734485722147)"/><circle cx="684.0401778928936" cy="74.8944301949814" r="2.085886536166072" fill="rgba(255,255,255,0.0614959630719386)"/><circle cx="989.5189180970192" cy="528.7556741712615" r="2.048241265118122" fill="rgba(255,255,255,0.05702112416736782)"/><circle cx="616.3222865201533" cy="257.97199979424477" r="2.02693296642974" fill="rgba(255,255,255,0.03841955047799274)"/><circle cx="858.939400780946" cy="383.2624670933001" r="2.461550512816757" fill="rgba(255,255,255,0.0640203570201993)"/><circle cx="569.6533162146807" cy="611.5932440129109" r="2.529811061453074" fill="rgba(255,255,255,0.03481209974968806)"/><circle cx="445.78031692653894" cy="599.2526849638671" r="1.2234473191201687" fill="rgba(255,255,255,0.03829679521266371)"/><circle cx="1004.5683807693422" cy="158.06310635525733" r="2.9715475677512586" fill="rgba(255,255,255,0.05627581590786576)"/><circle cx="429.5924414880574" cy="575.7718854490668" r="1.9131058645434678" fill="rgba(255,255,255,0.04056321560172364)"/><circle cx="547.2785258665681" cy="417.462903696578" r="2.569495370145887" fill="rgba(255,255,255,0.03497244675643742)"/><circle cx="1145.6276189535856" cy="575.4612282500602" r="2.3853404009714723" fill="rgba(255,255,255,0.07531161992345006)"/><circle cx="786.3072395324707" cy="266.648043456953" r="1.7919732527807355" fill="rgba(255,255,255,0.06197910349117592)"/><circle cx="133.1636887975037" cy="270.70288942661136" r="1.1759441085159779" fill="rgba(255,255,255,0.06459067377261818)"/><circle cx="1170.5251417122781" cy="540.1806520158425" r="1.1312771197408438" fill="rgba(255,255,255,0.07522815071977676)"/><circle cx="609.9871720187366" cy="238.90112722059712" r="2.314984125085175" fill="rgba(255,255,255,0.07177169115282594)"/><circle cx="557.4540847912431" cy="402.6017736364156" r="1.9798227758146822" fill="rgba(255,255,255,0.06711899718036876)"/><circle cx="235.18133349716663" cy="460.52938079461455" r="2.7498617600649595" fill="rgba(255,255,255,0.04468422880861908)"/><circle cx="350.234089884907" cy="500.21642576437443" r="1.059621005319059" fill="rgba(255,255,255,0.06991049136966468)"/><circle cx="98.79908049479127" cy="350.22104173433036" r="1.720219612121582" fill="rgba(255,255,255,0.0786115360748954)"/><circle cx="1072.3836860619485" cy="106.9991456461139" r="1.893963156733662" fill="rgba(255,255,255,0.06856720537878573)"/>
  <text x="600" y="335" font-family="system-ui, -apple-system, 'Segoe UI', sans-serif" font-size="68" font-weight="700" fill="rgba(0,0,0,0.15)" text-anchor="middle" letter-spacing="1">TGAT</text>
  <text x="600" y="332" font-family="system-ui, -apple-system, 'Segoe UI', sans-serif" font-size="68" font-weight="700" fill="white" text-anchor="middle" letter-spacing="1">TGAT</text>
  <g transform="translate(1140, 575)">
    <rect x="0" y="0" width="40" height="40" rx="8" fill="rgba(255,255,255,0.15)"/>
    <text x="20" y="29" font-family="sans-serif" font-weight="bold" font-size="24" fill="rgba(255,255,255,0.6)" text-anchor="middle">K</text>
  </g>
</svg>